<svg id="Capa_1" enable-background="new 0 0 512 512" height="512" viewBox="0 0 512 512" width="512" xmlns="http://www.w3.org/2000/svg"><g><path d="m285.34 0h-20.376c-9.402 0-17.024 7.622-17.024 17.024v92.751h54.425v-92.751c-.001-9.402-7.623-17.024-17.025-17.024z" fill="#8de1ce"/><path d="m309.555 381.631c-4.006-17.128 6.632-34.26 23.76-38.265 43.819-10.248 81.81-25.518 124.796-66.727 12.698-12.174 32.86-11.746 45.032.95 12.173 12.698 11.747 32.859-.95 45.032-45.731 43.841-90.456 67.821-154.371 82.768-17.165 4.017-34.27-6.666-38.267-23.758z" fill="#d1986f"/><path d="m391.067 221.122h-353.931l27.772 244.881c2.973 26.201 25.14 45.997 51.51 45.997h195.366c26.37 0 48.538-19.796 51.509-45.998z" fill="#fbf1cf"/><circle cx="214.101" cy="449.753" fill="#8de1ce" r="39.29"/><g fill="#e0b799"><path d="m373.28 377.95 17.787-156.828h-353.931l17.787 156.828z"/><path d="m116.418 512h195.366c26.37 0 48.538-19.796 51.509-45.998h-298.384c2.971 26.202 25.139 45.998 51.509 45.998z"/></g><path d="m42.945 272.34c52.995 11.463 105.394 16.436 171.156 16.436 65.763 0 118.162-4.974 171.156-16.436l5.809-51.219h-353.93z" fill="#d1986f"/><path d="m247.939 78.87h54.425v30.905h-54.425z" fill="#58d1b4"/><path d="m336.127 109.776h-244.051c-15.983 0-29.888 10.942-33.648 26.476l-15.11 62.436h341.566l-15.11-62.436c-3.759-15.535-17.664-26.476-33.647-26.476z" fill="#fae0bd"/><path d="m214.101 257.871c-70.951 0-125.595-5.952-182.716-19.9-22.069-5.388-35.591-27.647-30.202-49.716s27.644-35.588 49.716-30.202c50.381 12.302 99.189 17.551 163.201 17.551s112.82-5.249 163.201-17.551c22.074-5.393 44.328 8.132 49.716 30.202 5.389 22.069-8.133 44.328-30.202 49.716-57.119 13.948-111.763 19.9-182.714 19.9z" fill="#fbf1cf"/><path d="m75.514 429.055c-28.198-15.879-49.832-36.933-66.139-64.366-8.988-15.12-4.018-34.663 11.102-43.652 15.119-8.988 34.663-4.02 43.652 11.104 10.607 17.843 24.157 31.001 42.64 41.411 15.326 8.63 20.755 28.052 12.123 43.379-8.644 15.353-28.076 20.741-43.378 12.124z" fill="#d1986f"/><g><g fill="#fff"><ellipse cx="133.359" cy="342.751" rx="29.792" ry="23.725"/><ellipse cx="294.844" cy="342.751" rx="29.792" ry="23.725"/></g><g fill="#4e5660"><path d="m164.903 324.434c-4.142 0-7.5-3.357-7.5-7.5 0-3.684-2.997-6.681-6.681-6.681s-6.681 2.997-6.681 6.681c0 4.143-3.358 7.5-7.5 7.5s-7.5-3.357-7.5-7.5c0-11.955 9.726-21.681 21.681-21.681s21.681 9.726 21.681 21.681c0 4.142-3.358 7.5-7.5 7.5z"/><path d="m291.661 324.434c-4.142 0-7.5-3.357-7.5-7.5 0-3.684-2.997-6.681-6.681-6.681s-6.68 2.997-6.68 6.681c0 4.143-3.358 7.5-7.5 7.5s-7.5-3.357-7.5-7.5c0-11.955 9.726-21.681 21.68-21.681 11.955 0 21.681 9.726 21.681 21.681 0 4.142-3.358 7.5-7.5 7.5z"/><path d="m214.102 347.86c-7.934 0-15.477-3.436-20.697-9.426-2.721-3.123-2.395-7.86.727-10.581 3.124-2.721 7.859-2.396 10.582.728 2.37 2.72 5.791 4.279 9.387 4.279s7.017-1.56 9.387-4.279c2.721-3.125 7.458-3.448 10.582-.728 3.123 2.721 3.448 7.458.728 10.581-5.22 5.991-12.763 9.426-20.696 9.426z"/></g></g><g fill="#f4c8d2"><path d="m487.727 434.098c-4.122-.41-7.131-4.083-6.721-8.205 1.756-17.651 1.6-33.398-.462-46.803-.63-4.094 2.178-7.924 6.272-8.554 4.1-.628 7.924 2.179 8.553 6.272 2.254 14.649 2.444 31.663.564 50.568-.41 4.113-4.078 7.136-8.206 6.722z"/><path d="m447.2 466.359c-4.112-.502-7.039-4.241-6.537-8.354 1.775-14.555 2.118-27.003 1.02-36.999-.453-4.117 2.519-7.822 6.636-8.274 4.108-.448 7.821 2.519 8.274 6.636 1.242 11.301.901 24.533-1.041 40.454-.495 4.068-4.19 7.039-8.352 6.537z"/></g></g></svg>