<svg id="Capa_1" enable-background="new 0 0 512 512" height="512" viewBox="0 0 512 512" width="512" xmlns="http://www.w3.org/2000/svg"><g><g><path d="m45.683 505.386c-4.142 0-7.5-3.357-7.5-7.5v-90.261c0-3.282 2.134-6.184 5.268-7.16 3.134-.977 6.538.197 8.403 2.898l49.505 71.686-.653-67.522c-.04-4.142 3.285-7.532 7.427-7.572 4.163-.025 7.533 3.285 7.572 7.428l.845 87.383c.001 4.466-2.415 8.06-6.155 9.228-3.632 1.135-7.499-.33-9.854-3.731l-47.359-68.579v66.202c.001 4.142-3.357 7.5-7.499 7.5z" fill="#a2ddfd"/></g><g><path d="m147.03 492.467c-4.142 0-7.5-3.357-7.5-7.5v-90.43c0-4.143 3.358-7.5 7.5-7.5s7.5 3.357 7.5 7.5v90.43c0 4.143-3.358 7.5-7.5 7.5z" fill="#7acdf9"/></g><path d="m364.523 297.216c-4.142 0-7.5 3.357-7.5 7.5v36.164h-47.579v-36.164c0-4.143-3.358-7.5-7.5-7.5s-7.5 3.357-7.5 7.5v90.43c0 4.143 3.358 7.5 7.5 7.5s7.5-3.357 7.5-7.5v-39.266h47.579v39.266c0 4.143 3.358 7.5 7.5 7.5s7.5-3.357 7.5-7.5v-90.43c0-4.143-3.357-7.5-7.5-7.5z" fill="#6a95d6"/><g><path d="m226.198 439.66c-29.067 0-52.715-23.648-52.715-52.715s23.648-52.716 52.715-52.716c10.563 0 20.757 3.115 29.479 9.008 3.432 2.319 4.334 6.982 2.015 10.414-2.319 3.433-6.98 4.333-10.414 2.016-6.232-4.212-13.522-6.438-21.081-6.438-20.796 0-37.715 16.919-37.715 37.716 0 20.796 16.919 37.715 37.715 37.715 13.155 0 28.305-8.08 31.083-30.215h-19.103c-4.142 0-7.5-3.357-7.5-7.5s3.358-7.5 7.5-7.5h27.052c4.142 0 7.5 3.357 7.5 7.5 0 31.039-19.134 52.715-46.531 52.715z" fill="#8daee1"/></g><path d="m449.261 305.33h-49.94c-4.142 0-7.5 3.357-7.5 7.5s3.358 7.5 7.5 7.5h17.369v82.931c0 4.143 3.358 7.5 7.5 7.5s7.5-3.357 7.5-7.5v-82.931h17.571c4.142 0 7.5-3.357 7.5-7.5s-3.358-7.5-7.5-7.5z" fill="#8f8bd5"/><g><path d="m491.704 419.702c0 3.322-2.693 6.016-6.016 6.016-3.322 0-6.016-2.693-6.016-6.016s2.693-6.016 6.016-6.016c3.322 0 6.016 2.694 6.016 6.016z" fill="#7acdf9"/><g><g><path d="m485.776 402.785c-4.142 0-7.5-3.358-7.5-7.5v-77.017c0-4.143 3.358-7.5 7.5-7.5s7.5 3.357 7.5 7.5v77.017c0 4.143-3.358 7.5-7.5 7.5z" fill="#b39bdb"/></g></g></g><path d="m336.515 235.736c-70.247 8.367-157.86 73.875-206.691 124.295-15.865 16.381-43.827 7.385-46.938-15.207-4.191-30.437.65-61.747 13.583-85.214-21.485-6.854-47.569-11.506-71.496-13.885-22.364-2.223-32.99-28.864-17.991-45.6 70.525-78.688 207.895-120.429 299.331-92.365z" fill="#a2ddfd"/><path d="m306.313 107.762c-27.527-8.449-59.219-10.562-91.995-7.255-3.117 16.339.837 33.362 11.125 46.733l29.751 38.668-1.342 48.769c-.264 9.616 1.776 18.903 5.854 27.268 26.132-13.58 52.509-23.314 76.809-26.208z" fill="#7acdf9"/><path d="m96.469 259.611c-12.933 23.467-17.774 54.777-13.583 85.214 3.111 22.591 31.073 31.588 46.938 15.207 48.831-50.42 136.444-115.928 206.691-124.295l-18.299-77.537c-114.48 15.62-174.485 69.048-221.747 101.411z" fill="#8daee1"/><path d="m318.216 158.199c-26.707 3.644-50.447 9.347-71.755 16.359l8.733 11.35-1.342 48.769c-.264 9.616 1.776 18.903 5.854 27.268 26.132-13.58 52.509-23.314 76.809-26.208z" fill="#6a95d6"/><path d="m368.792 245.695-47.031 16.724c-18.36 6.529-37.551-7.414-37.015-26.893l1.372-49.897c.175-6.377-1.853-12.619-5.743-17.674l-30.439-39.561c-11.883-15.444-4.552-38.004 14.139-43.514l47.879-14.114c6.119-1.804 11.429-5.662 15.035-10.923l28.218-41.174c11.016-16.074 34.737-16.074 45.753 0l28.218 41.174c3.606 5.262 8.916 9.12 15.035 10.923l47.879 14.114c18.691 5.51 26.021 28.07 14.139 43.514l-30.439 39.561c-3.89 5.056-5.918 11.298-5.743 17.674l1.372 49.897c.536 19.479-18.655 33.422-37.015 26.893l-47.031-16.724c-6.01-2.137-12.573-2.137-18.583 0z" fill="#f6ee86"/><path d="m377.636 244.111c-66.269-51.678-65.85-140.28-58.856-176.425-2.114 1.318-4.402 2.367-6.826 3.081l-47.879 14.114c-18.691 5.51-26.021 28.07-14.138 43.514l30.439 39.561c3.89 5.056 5.918 11.298 5.743 17.674l-1.372 49.897c-.536 19.479 18.655 33.422 37.015 26.893l47.031-16.724c2.861-1.019 5.849-1.536 8.843-1.585z" fill="#efd176"/><g><g fill="#eda1ab"><ellipse cx="302.616" cy="137.719" rx="27.846" ry="22.175"/><ellipse cx="453.551" cy="137.719" rx="27.846" ry="22.175"/></g><g fill="#4e5660"><path d="m318.845 122.814c-7.675 0-14.973-3.323-20.022-9.119-2.721-3.122-2.396-7.86.727-10.581 3.122-2.721 7.86-2.396 10.582.728 2.2 2.524 5.376 3.973 8.713 3.973 3.336 0 6.512-1.448 8.713-3.974 2.721-3.123 7.458-3.447 10.582-.727 3.123 2.722 3.448 7.459.727 10.582-5.051 5.794-12.348 9.118-20.022 9.118z"/><path d="m437.323 122.814c-7.674 0-14.972-3.323-20.022-9.118-2.721-3.123-2.396-7.86.727-10.582 3.123-2.721 7.86-2.396 10.582.727 2.201 2.525 5.376 3.974 8.713 3.974 3.336 0 6.512-1.448 8.713-3.974 2.722-3.123 7.458-3.447 10.582-.727 3.122 2.722 3.448 7.459.727 10.582-5.051 5.794-12.348 9.118-20.022 9.118z"/><ellipse cx="378.084" cy="128.38" rx="11.109" ry="11.847"/></g></g></g></svg>